<svg width="60" height="60" viewBox="0 0 60 60" fill="none" xmlns="http://www.w3.org/2000/svg">
<path d="M41.8811 0C40.1333 4.11528 38.1843 8.24807 34.1355 11.4859C35.0534 11.9435 36.7383 12.3203 37.6437 12.6298C36.1096 15.1463 33.4943 17.5283 31.1052 19.668C32.5009 20.4351 33.8841 21.0542 35.2672 21.5521C33.4943 24.5396 31.3819 27.3792 28.7414 29.9495C30.8412 31.2011 32.9285 32.1835 35.0031 32.8833C32.7524 36.3014 29.9233 39.5581 25.9374 43.1244C32.4129 46.6906 38.134 48.3459 43.8174 48.1575C44.0438 48.1575 44.2827 48.1709 44.509 48.1709V48.1305C49.526 47.8345 54.5178 46.1119 60 43.0167C55.1213 39.7196 52.091 36.5975 49.7649 33.1659C52.003 32.4661 54.2412 31.4299 56.4667 30.0572C53.2227 27.6752 50.9091 24.8626 49.0607 21.7809C50.5822 21.2829 52.091 20.6101 53.5999 19.7622C50.6828 17.7975 48.0548 15.4155 46.4705 12.8451C47.577 12.5221 49.3374 12.1319 50.4313 11.5801C45.5903 8.65179 44.2827 4.42615 41.8811 0ZM19.6379 40.877C19.6253 40.9174 19.5876 40.9846 19.5624 41.025L22.0018 59.7309L31.0801 59.8923C26.2769 53.85 22.7813 47.6326 19.6379 40.877ZM19.5624 41.0385C16.5699 47.4711 13.9293 53.7154 8.69357 59.5021L18.3553 59.677L19.5624 41.0385ZM16.9596 41.1865C13.9293 42.3842 10.1484 43.4608 6.61009 43.3128C5.20433 48.6688 3.2931 54.0787 0 58.8965L5.86571 59.1118C11.2888 53.6212 13.9419 47.673 16.9596 41.1865ZM40.4099 50.4452L40.0704 59.9193L45.4772 60L44.7102 50.5933C43.2516 50.5933 41.8056 50.5529 40.4099 50.4452Z" fill="#242425"/>
</svg>
