<svg width="60" height="60" viewBox="0 0 60 60" fill="none" xmlns="http://www.w3.org/2000/svg">
<path d="M30 0C13.4582 0 0 13.4582 0 30C0 46.5418 13.4582 60 30 60C46.5418 60 60 46.5418 60 30C60 13.4582 46.5418 0 30 0ZM50.625 43.8462H44.1029C43.9008 43.8457 43.7024 43.7922 43.5275 43.6909C43.3525 43.5897 43.2073 43.4443 43.1063 43.2692L40.7784 39.2769C40.6251 39.0159 40.5806 38.7051 40.6543 38.4115L42.7976 29.7692C42.8406 29.5951 42.9236 29.4334 43.04 29.2969C43.1564 29.1605 43.3031 29.0531 43.4683 28.9832L47.5212 27.2668C47.7192 27.1828 47.9368 27.1559 48.1493 27.189C48.3619 27.2222 48.561 27.3141 48.724 27.4543L54.7284 32.6207C54.8764 32.7481 54.9896 32.911 55.0575 33.0942C55.1253 33.2773 55.1456 33.4747 55.1163 33.6678C54.6191 37.0793 53.4272 40.3526 51.6144 43.2851C51.512 43.4561 51.367 43.5977 51.1936 43.696C51.0203 43.7943 50.8243 43.8461 50.625 43.8462ZM12.4788 27.2784L16.5317 28.9947C16.6969 29.0646 16.8436 29.172 16.96 29.3085C17.0764 29.4449 17.1594 29.6066 17.2024 29.7808L19.3457 38.4231C19.4194 38.7166 19.3749 39.0274 19.2216 39.2885L16.8938 43.2692C16.7927 43.4443 16.6475 43.5897 16.4726 43.6909C16.2976 43.7922 16.0992 43.8457 15.8971 43.8462H9.375C9.17774 43.8463 8.98374 43.7958 8.81154 43.6996C8.63933 43.6034 8.49466 43.4647 8.39135 43.2966C6.57857 40.3641 5.38669 37.0909 4.88942 33.6793C4.86019 33.4862 4.88045 33.2888 4.9483 33.1057C5.01616 32.9226 5.1294 32.7596 5.2774 32.6322L11.2817 27.4659C11.4443 27.3267 11.6423 27.2354 11.8537 27.2023C12.0651 27.1692 12.2815 27.1955 12.4788 27.2784ZM49.5375 14.6957L46.9313 22.1063C46.8789 22.2577 46.7955 22.3966 46.6865 22.514C46.5775 22.6315 46.4452 22.725 46.2981 22.7885L42.0317 24.5957C41.836 24.6785 41.6211 24.7056 41.4109 24.6741C41.2006 24.6425 41.0032 24.5535 40.8404 24.4168L32.726 17.6106C32.5963 17.5033 32.4917 17.369 32.4194 17.217C32.3472 17.065 32.309 16.899 32.3077 16.7308V11.8875C32.3078 11.6977 32.3547 11.5109 32.4443 11.3436C32.5339 11.1763 32.6633 11.0337 32.8212 10.9284L38.9986 6.81202C39.1598 6.70441 39.3455 6.63915 39.5386 6.62226C39.7317 6.60537 39.9259 6.6374 40.1034 6.71538C43.6579 8.26558 46.8123 10.6056 49.3269 13.5577C49.4591 13.712 49.5482 13.8985 49.5852 14.0984C49.6222 14.2982 49.6057 14.5042 49.5375 14.6957ZM21 6.81202L27.1788 10.9284C27.3367 11.0337 27.4662 11.1763 27.5557 11.3436C27.6453 11.5109 27.6922 11.6977 27.6923 11.8875V16.7308C27.6923 16.8993 27.6554 17.0658 27.5841 17.2186C27.5128 17.3713 27.409 17.5066 27.2798 17.6149L19.1654 24.4212C19.0026 24.5578 18.8051 24.6468 18.5949 24.6784C18.3847 24.71 18.1698 24.6828 17.974 24.6L13.7019 22.7885C13.5539 22.7258 13.4206 22.6328 13.3105 22.5156C13.2005 22.3984 13.1162 22.2594 13.063 22.1077L10.4567 14.6971C10.389 14.505 10.3733 14.2984 10.4113 14.0982C10.4493 13.8981 10.5396 13.7116 10.6731 13.5577C13.1891 10.6027 16.3461 8.26054 19.9038 6.70962C20.0806 6.63401 20.2735 6.60377 20.4649 6.62165C20.6564 6.63954 20.8403 6.70498 21 6.81202ZM23.4966 54.0418L20.651 46.875C20.5859 46.7121 20.5588 46.5365 20.5718 46.3615C20.5848 46.1866 20.6375 46.0169 20.726 45.8654L22.9139 42.1154C23.015 41.9404 23.1602 41.795 23.3351 41.6937C23.51 41.5925 23.7085 41.5389 23.9106 41.5385H36.0894C36.2915 41.5389 36.49 41.5925 36.6649 41.6937C36.8398 41.795 36.985 41.9404 37.0861 42.1154L39.2755 45.8654C39.3641 46.0168 39.4171 46.1864 39.4304 46.3614C39.4436 46.5363 39.4168 46.712 39.3519 46.875L36.5264 54.0389C36.4573 54.2141 36.3464 54.3697 36.2034 54.4921C36.0603 54.6145 35.8895 54.7001 35.7058 54.7413C31.9564 55.6018 28.0609 55.6018 24.3115 54.7413C24.1292 54.6996 23.9597 54.614 23.8177 54.4922C23.6758 54.3703 23.5656 54.2158 23.4966 54.0418Z" fill="#242425"/>
</svg>
