<svg width="60" height="60" viewBox="0 0 60 60" fill="none" xmlns="http://www.w3.org/2000/svg">
<path fill-rule="evenodd" clip-rule="evenodd" d="M7.30188 6.51607C7.19033 6.5155 7.07977 6.53721 6.97655 6.57996C6.87334 6.62271 6.77949 6.68566 6.70042 6.76518C6.62134 6.84471 6.55859 6.93924 6.51578 7.04335C6.47296 7.14746 6.45092 7.2591 6.45092 7.37185V44.3875H44.7825V34.1138C44.7825 33.2497 45.1221 32.421 45.7266 31.81C46.3311 31.199 47.151 30.8558 48.0059 30.8558C48.8607 30.8558 49.6806 31.199 50.2851 31.81C50.8896 32.421 51.2292 33.2497 51.2292 34.1138V52.6282C51.2292 56.6985 47.9629 60 43.9359 60H7.29328C3.26629 60 0 56.6985 0 52.6282V7.37185C0.00341392 5.41627 0.774086 3.5419 2.14296 2.15991C3.51183 0.777914 5.36713 0.0011473 7.30188 0H33.7588C34.6137 0 35.4336 0.343256 36.038 0.954257C36.6425 1.56526 36.9821 2.39395 36.9821 3.25804C36.9821 4.12212 36.6425 4.95082 36.038 5.56182C35.4336 6.17282 34.6137 6.51607 33.7588 6.51607H7.30188ZM15.4418 12.6542C15.0891 12.6542 14.7398 12.7244 14.4139 12.8609C14.088 12.9973 13.7919 13.1973 13.5425 13.4494C13.293 13.7015 13.0952 14.0008 12.9602 14.3302C12.8252 14.6596 12.7557 15.0127 12.7557 15.3692C12.7557 15.7258 12.8252 16.0788 12.9602 16.4082C13.0952 16.7376 13.293 17.0369 13.5425 17.2891C13.7919 17.5412 14.088 17.7412 14.4139 17.8776C14.7398 18.014 15.0891 18.0843 15.4418 18.0843H23.5817C24.2941 18.0843 24.9774 17.7982 25.4811 17.2891C25.9848 16.7799 26.2678 16.0893 26.2678 15.3692C26.2678 14.6492 25.9848 13.9586 25.4811 13.4494C24.9774 12.9403 24.2941 12.6542 23.5817 12.6542H15.4418ZM12.7557 27.828C12.7557 26.3293 13.9591 25.1129 15.4418 25.1129H19.5118C20.2242 25.1129 20.9074 25.399 21.4111 25.9082C21.9149 26.4173 22.1979 27.1079 22.1979 27.828C22.1979 28.548 21.9149 29.2386 21.4111 29.7478C20.9074 30.257 20.2242 30.543 19.5118 30.543H15.4418C14.7294 30.543 14.0462 30.257 13.5425 29.7478C13.0387 29.2386 12.7557 28.548 12.7557 27.828ZM39.9691 32.3197C40.4028 32.2403 40.8019 32.028 41.1123 31.7116L58.7287 13.8228C59.1316 13.4189 59.4513 12.9385 59.6695 12.4091C59.8877 11.8797 60 11.312 60 10.7385C60 10.165 59.8877 9.59723 59.6695 9.06787C59.4513 8.53851 59.1316 8.05805 58.7287 7.65421L54.1731 3.04952C53.7736 2.64236 53.2983 2.31919 52.7745 2.09865C52.2508 1.87811 51.6891 1.76456 51.1217 1.76456C50.5544 1.76456 49.9926 1.87811 49.4689 2.09865C48.9452 2.31919 48.4698 2.64236 48.0703 3.04952L30.3808 20.8427C30.0622 21.1646 29.8518 21.5794 29.7791 22.0287L28.2319 31.5074C28.1761 31.8509 28.2027 32.2029 28.3096 32.5338C28.4164 32.8647 28.6004 33.1648 28.846 33.4088C29.0917 33.6528 29.3917 33.8335 29.7209 33.9358C30.05 34.0381 30.3987 34.0589 30.7375 33.9965L39.9691 32.3197Z" fill="#242425"/>
</svg>
